<svg width="22" height="18" viewBox="0 0 22 18" fill="none" xmlns="http://www.w3.org/2000/svg">
<path fill-rule="evenodd" clip-rule="evenodd" d="M20.7312 16.4812C20.2389 16.9734 19.5712 17.25 18.875 17.25L9.875 17.25C9.17881 17.25 8.51113 16.9734 8.01884 16.4812C7.52656 15.9889 7.25 15.3212 7.25 14.625L7.25 9.75L3.06066 9.75L5.53033 12.2197C5.82322 12.5126 5.82322 12.9874 5.53033 13.2803C5.23744 13.5732 4.76256 13.5732 4.46967 13.2803L0.71967 9.53033C0.426778 9.23743 0.426778 8.76256 0.71967 8.46967L4.46967 4.71967C4.76256 4.42677 5.23744 4.42677 5.53033 4.71967C5.82322 5.01256 5.82322 5.48743 5.53033 5.78033L3.06066 8.25L7.25 8.25L7.25 3.375C7.25 2.67881 7.52656 2.01113 8.01885 1.51884C8.51113 1.02656 9.17881 0.749999 9.875 0.749999L18.875 0.75C19.5712 0.75 20.2389 1.02656 20.7312 1.51884C21.2234 2.01113 21.5 2.67881 21.5 3.375L21.5 14.625C21.5 15.3212 21.2234 15.9889 20.7312 16.4812ZM8.75 9.75L14.0469 9.75C14.4611 9.75 14.7969 9.41421 14.7969 9C14.7969 8.58579 14.4611 8.25 14.0469 8.25L8.75 8.25L8.75 3.375C8.75 3.07663 8.86853 2.79048 9.07951 2.5795C9.29048 2.36853 9.57663 2.25 9.875 2.25L18.875 2.25C19.1734 2.25 19.4595 2.36853 19.6705 2.57951C19.8815 2.79048 20 3.07663 20 3.375L20 14.625C20 14.9234 19.8815 15.2095 19.6705 15.4205C19.4595 15.6315 19.1734 15.75 18.875 15.75L9.875 15.75C9.57663 15.75 9.29048 15.6315 9.0795 15.4205C8.86853 15.2095 8.75 14.9234 8.75 14.625L8.75 9.75Z" fill="#909090"/>
</svg>
