<svg width="261" height="68" viewBox="0 0 261 68" fill="none" xmlns="http://www.w3.org/2000/svg">
<g clip-path="url(#clip0)">
<path d="M18.0448 41.8361C17.2811 42.8197 16.3002 43.6132 15.1787 44.1545C14.0573 44.6957 12.8257 44.97 11.5806 44.9559C4.28657 44.9559 0 39.671 0 33.1008C0 26.3121 4.28657 21.0335 11.5806 21.0335C16.3913 21.0335 20.9399 23.9099 21.5077 29.1012H16.5597C16.3303 27.9667 15.6989 26.9532 14.7818 26.2471C13.8647 25.5409 12.7236 25.1896 11.5681 25.2577C6.91341 25.2577 5.16634 29.1012 5.16634 33.1008C5.16634 36.9194 6.91341 40.7629 11.5681 40.7629C14.925 40.7629 16.878 39.0034 17.1837 35.8274H11.9674V32.0837H21.8696V44.4255H18.5689L18.0448 41.8361Z" fill="#1D1D1B"/>
<path d="M23.7789 32.3583C24.0597 27.8845 28.1466 26.543 32.2023 26.543C35.765 26.543 40.0641 27.3105 40.0641 31.4847V40.5321C40.0641 42.1169 40.2325 43.6955 40.688 44.4006H35.6777C35.4892 43.8564 35.3717 43.2902 35.3283 42.7159C33.7684 44.3007 31.4785 44.8685 29.3009 44.8685C25.9066 44.8685 23.2048 43.2213 23.2048 39.6585C23.2048 35.7214 26.2497 34.7792 29.3009 34.3736C32.352 33.9681 35.1224 34.0429 35.1224 32.09C35.1224 30.0372 33.6623 29.7377 31.9277 29.7377C30.0559 29.7377 28.8516 30.4739 28.6769 32.3583H23.7789ZM35.1473 35.8898C34.3112 36.5949 32.5579 36.6324 31.0604 36.8882C29.5629 37.144 28.1466 37.6931 28.1466 39.4401C28.1466 41.1872 29.5629 41.6614 31.1603 41.6614C35.0038 41.6614 35.1473 38.7039 35.1473 37.6619V35.8898Z" fill="#1D1D1B"/>
<path d="M58.3896 44.3756H53.7099V41.9796H53.6101C53.0153 42.8788 52.2044 43.6145 51.2516 44.1192C50.2989 44.6239 49.2348 44.8815 48.1567 44.8685C42.9218 44.8685 41.6052 42.0108 41.6052 37.7055V27.0047H46.5282V36.832C46.5282 39.6897 47.3955 41.1061 49.648 41.1061C52.3123 41.1061 53.4541 39.6585 53.4541 36.1145V27.0047H58.3771L58.3896 44.3756Z" fill="#1D1D1B"/>
<path d="M72.6283 42.1793H72.5597C71.4178 44.0512 69.4025 44.8685 67.1188 44.8685C61.7154 44.8685 59.0823 40.3636 59.0823 35.5529C59.0823 30.8795 61.7528 26.543 67.0127 26.543C68.0412 26.5027 69.0637 26.7175 69.9891 27.1682C70.9145 27.6189 71.714 28.2916 72.3163 29.1262H72.385V22.6682H77.3017V44.3756H72.6283V42.1793ZM68.3293 30.137C65.1097 30.137 63.999 32.8262 63.999 35.6902C63.999 38.4106 65.2844 41.2683 68.3293 41.2683C71.5863 41.2683 72.5597 38.5167 72.5597 35.6527C72.5597 32.7888 71.5177 30.137 68.3293 30.137Z" fill="#1D1D1B"/>
<path d="M79.2485 27.0047H83.9282V30.2368H83.9968C84.4992 29.141 85.3038 28.2114 86.3163 27.557C87.3287 26.9027 88.5068 26.5509 89.7123 26.543C90.0759 26.5457 90.4373 26.6003 90.7855 26.7052V31.1478C90.2035 31.0356 89.6123 30.9792 89.0197 30.9793C85.4194 30.9793 84.1715 33.4751 84.1715 36.5949V44.3756H79.2485V27.0047Z" fill="#1D1D1B"/>
<path d="M95.0156 36.8882C95.1591 39.9081 96.6816 41.2558 99.4207 41.2558C101.392 41.2558 102.984 40.0828 103.295 39.0034H107.626C106.241 43.109 103.296 44.8561 99.246 44.8561C93.6305 44.8561 90.0989 41.1123 90.0989 35.7089C90.0989 30.4926 93.8052 26.5305 99.246 26.5305C105.342 26.5305 108.287 31.5222 107.938 36.857L95.0156 36.8882ZM103.021 33.8557C102.572 31.4348 101.492 30.1557 99.1025 30.1557C98.589 30.1202 98.0736 30.1887 97.5871 30.3572C97.1007 30.5256 96.6533 30.7905 96.2717 31.136C95.8901 31.4815 95.5821 31.9004 95.3663 32.3678C95.1505 32.8351 95.0312 33.3412 95.0156 33.8557H103.021Z" fill="#1D1D1B"/>
<path d="M108.88 32.3583C109.161 27.8845 113.279 26.543 117.297 26.543C120.866 26.543 125.165 27.3105 125.165 31.4847V40.5321C125.165 42.1169 125.334 43.6955 125.789 44.4006H120.798C120.612 43.8556 120.495 43.2897 120.448 42.7159C118.894 44.3007 116.605 44.8685 114.421 44.8685C111.026 44.8685 108.325 43.2213 108.325 39.6585C108.325 35.7214 111.376 34.7792 114.421 34.3736C117.466 33.9681 120.242 34.0429 120.242 32.09C120.242 30.0372 118.788 29.7377 117.054 29.7377C115.182 29.7377 113.971 30.4739 113.803 32.3583H108.88ZM120.242 35.8898C119.412 36.5949 117.678 36.6323 116.155 36.9007C114.633 37.169 113.248 37.7056 113.248 39.4526C113.248 41.1997 114.664 41.6739 116.261 41.6739C120.105 41.6739 120.242 38.7164 120.242 37.6744V35.8898Z" fill="#1D1D1B"/>
<path d="M144.009 44.3756H139.335V41.9796H139.254C138.657 42.8811 137.843 43.6181 136.887 44.1229C135.931 44.6277 134.863 44.8841 133.782 44.8685C128.553 44.8685 127.23 42.0108 127.23 37.7055V27.0047H132.153V36.832C132.153 39.6897 133.021 41.1061 135.273 41.1061C137.938 41.1061 139.086 39.6585 139.086 36.1145V27.0047H143.996L144.009 44.3756Z" fill="#1D1D1B"/>
<path d="M26.0064 51.4263L32.1336 67.0252H30.5363L28.6645 62.1708H21.5202L19.6483 67.0252H18.0635L24.3467 51.4263H26.0064ZM28.1279 60.9166L25.1079 52.9113L21.9881 60.9166H28.1279Z" fill="#1D1D1B"/>
<path d="M41.2558 56.8547C41.0839 56.5124 40.8364 56.2137 40.5321 55.9812C40.2198 55.7498 39.8661 55.5804 39.4901 55.482C39.083 55.3732 38.6634 55.3187 38.2421 55.3198C37.8918 55.3205 37.5426 55.3582 37.2001 55.4321C36.8598 55.501 36.5331 55.6254 36.233 55.8002C35.9462 55.9657 35.7024 56.1966 35.5217 56.4741C35.3346 56.7841 35.2414 57.1417 35.2534 57.5036C35.2416 57.8129 35.3315 58.1175 35.5092 58.3709C35.6715 58.6201 35.884 58.8326 36.1332 58.9949C36.401 59.1635 36.688 59.2997 36.988 59.4004C37.3 59.5086 37.587 59.5959 37.8491 59.6625L39.9081 60.1242C40.3566 60.1944 40.796 60.3136 41.2184 60.4799C41.6347 60.6456 42.0238 60.8727 42.3727 61.1537C42.7093 61.4407 42.9869 61.7904 43.1901 62.1833C43.4109 62.6332 43.5201 63.1298 43.5083 63.6308C43.5263 64.2475 43.3659 64.8563 43.0466 65.3841C42.7409 65.8584 42.3339 66.259 41.8548 66.5572C41.3528 66.8591 40.8016 67.0703 40.2263 67.1811C39.638 67.3092 39.0377 67.374 38.4356 67.3746C37.1475 67.4351 35.8761 67.064 34.8229 66.3201C34.3307 65.9038 33.9342 65.3862 33.6607 64.8025C33.3871 64.2188 33.243 63.5828 33.238 62.9383H34.7854C34.7855 63.393 34.8882 63.8418 35.0859 64.2513C35.2836 64.6607 35.5712 65.0203 35.9273 65.303C36.6741 65.852 37.5841 66.1333 38.5105 66.1017C38.9025 66.0987 39.2934 66.0569 39.6772 65.9769C40.068 65.8997 40.4432 65.7585 40.7879 65.5589C41.1196 65.3735 41.4087 65.1205 41.6365 64.8164C41.8627 64.4887 41.9785 64.0975 41.9672 63.6995C41.9771 63.3703 41.8973 63.0446 41.7363 62.7573C41.5757 62.5068 41.3628 62.294 41.1123 62.1333C40.8346 61.9538 40.5346 61.8112 40.2201 61.7091C39.8865 61.5933 39.547 61.4954 39.203 61.4158L37.2189 60.9728C36.7432 60.8529 36.2762 60.7007 35.8212 60.5173C35.42 60.366 35.0435 60.1557 34.7043 59.8934C34.3873 59.6444 34.1313 59.3264 33.9556 58.9637C33.754 58.4826 33.6638 57.9622 33.6919 57.4413C33.72 56.9205 33.8656 56.4128 34.1178 55.9562C34.3966 55.5058 34.7797 55.1292 35.2347 54.8581C35.7083 54.5711 36.2242 54.3605 36.7634 54.2341C37.3141 54.1086 37.877 54.0437 38.4418 54.0407C39.0432 54.0357 39.6422 54.1176 40.2201 54.284C40.7481 54.4398 41.24 54.6985 41.6677 55.0452C42.0851 55.3842 42.4237 55.81 42.6597 56.2931C42.9151 56.8569 43.0571 57.4654 43.0778 58.0839H41.5491C41.5427 57.6576 41.4425 57.238 41.2558 56.8547Z" fill="#1D1D1B"/>
<path d="M53.6351 56.8547C53.461 56.5138 53.2139 56.2156 52.9113 55.9812C52.5981 55.7514 52.2447 55.5821 51.8693 55.482C51.4623 55.3734 51.0427 55.3188 50.6214 55.3198C50.2711 55.3205 49.9218 55.3582 49.5794 55.4321C49.2393 55.5021 48.9128 55.6264 48.6123 55.8002C48.3254 55.9657 48.0817 56.1966 47.901 56.4741C47.7138 56.7841 47.6206 57.1417 47.6327 57.5036C47.6227 57.8136 47.7148 58.1183 47.8947 58.3709C48.057 58.6201 48.2695 58.8326 48.5187 58.9949C48.7859 59.1647 49.073 59.3009 49.3735 59.4004C49.6855 59.5086 49.9725 59.5959 50.2346 59.6625L52.2936 60.1242C52.7417 60.1959 53.181 60.3152 53.6039 60.4799C54.0188 60.6445 54.406 60.8718 54.752 61.1537C55.0922 61.4388 55.3722 61.7888 55.5756 62.1833C55.7964 62.6332 55.9056 63.1298 55.8938 63.6308C55.9128 64.2485 55.7501 64.8581 55.4259 65.3842C55.1239 65.8593 54.7187 66.2603 54.2403 66.5572C53.7383 66.8591 53.1871 67.0703 52.6118 67.1811C52.0235 67.3092 51.4232 67.374 50.8211 67.3746C49.5311 67.4351 48.2577 67.0641 47.2021 66.3201C46.2787 65.6213 45.7525 64.494 45.6235 62.9383H47.1709C47.1716 63.3922 47.2739 63.8403 47.4704 64.2495C47.6669 64.6587 47.9526 65.0187 48.3065 65.303C49.0557 65.852 49.9677 66.1333 50.8959 66.1017C51.286 66.099 51.6748 66.0572 52.0565 65.9769C52.4492 65.8997 52.8265 65.7585 53.1734 65.5589C53.5051 65.3735 53.7942 65.1205 54.022 64.8164C54.2599 64.4992 54.391 64.1147 54.3963 63.7182C54.4073 63.3881 54.3251 63.0616 54.1592 62.776C53.9992 62.525 53.7863 62.3121 53.5353 62.1521C53.2562 61.9749 52.9566 61.8324 52.643 61.7278C52.3095 61.612 51.97 61.5141 51.626 61.4345L49.6356 60.9915C49.1619 60.8716 48.697 60.7194 48.2441 60.536C47.8422 60.3861 47.4656 60.1757 47.1273 59.9121C46.8103 59.6631 46.5542 59.3452 46.3785 58.9824C46.1769 58.5013 46.0868 57.9809 46.1149 57.4601C46.143 56.9392 46.2886 56.4315 46.5407 55.9749C46.8172 55.5248 47.1982 55.1481 47.6514 54.8768C48.1273 54.5898 48.6452 54.3793 49.1863 54.2528C49.7371 54.1273 50.2999 54.0624 50.8647 54.0594C51.4661 54.0544 52.0651 54.1363 52.643 54.3027C53.1691 54.4585 53.6591 54.7173 54.0843 55.064C54.502 55.4043 54.8423 55.8297 55.0827 56.3119C55.3387 56.8751 55.4787 57.4841 55.4945 58.1026H53.9533C53.9419 57.6681 53.8331 57.2417 53.6351 56.8547Z" fill="#1D1D1B"/>
<path d="M67.5556 67.0439V64.7664H67.4994C67.1214 65.583 66.5003 66.2629 65.7212 66.7132C64.9362 67.1655 64.0439 67.3983 63.138 67.387C62.4412 67.404 61.7474 67.2919 61.0914 67.0563C60.5624 66.8618 60.0904 66.5379 59.7187 66.1142C59.352 65.6792 59.0876 65.1675 58.945 64.6167C58.774 63.9609 58.6922 63.2852 58.7017 62.6076V54.3963H60.2428V62.6325C60.2094 63.5629 60.4908 64.4775 61.0415 65.2282C61.5407 65.8521 62.4017 66.1142 63.6247 66.1142C64.2255 66.1324 64.8195 65.9833 65.3405 65.6836C65.8147 65.3968 66.2178 65.0065 66.5198 64.5418C66.8404 64.0424 67.0726 63.4915 67.2062 62.9133C67.3508 62.2998 67.4241 61.6717 67.4246 61.0414V54.3963H68.972V67.0439H67.5556Z" fill="#1D1D1B"/>
<path d="M73.9011 54.3963V57.3663H73.951C74.2865 56.3883 74.9388 55.5503 75.8047 54.9852C76.6705 54.42 77.7002 54.1601 78.7305 54.2466V55.794C78.0815 55.7548 77.4314 55.8504 76.8212 56.0748C76.2679 56.2858 75.7628 56.6063 75.3362 57.0169C74.9176 57.4326 74.5885 57.9294 74.3691 58.477C74.1321 59.0721 74.0155 59.7083 74.0259 60.3488V67.0875H72.491V54.3963H73.9011Z" fill="#1D1D1B"/>
<path d="M81.1078 56.3555C81.3544 55.8368 81.72 55.3836 82.1747 55.0328C82.6478 54.6811 83.1836 54.4227 83.7533 54.2715C84.4117 54.1029 85.0892 54.0211 85.7687 54.0282C86.3279 54.0299 86.8857 54.0842 87.4347 54.1904C87.9691 54.2946 88.4766 54.5069 88.9259 54.8144C89.388 55.1295 89.7601 55.5596 90.0054 56.0623C90.3098 56.709 90.4532 57.4197 90.4234 58.1338V64.8538C90.404 64.9781 90.4138 65.1053 90.452 65.2252C90.4902 65.3451 90.5558 65.4545 90.6435 65.5447C90.7313 65.6349 90.8388 65.7034 90.9577 65.7448C91.0765 65.7863 91.2033 65.7995 91.3281 65.7835C91.4978 65.7866 91.666 65.7526 91.8211 65.6837V66.9815C91.6625 67.0158 91.5021 67.0408 91.3406 67.0564C91.1661 67.0676 90.991 67.0676 90.8165 67.0564C90.4952 67.0673 90.175 67.0142 89.8743 66.9004C89.6486 66.8062 89.4555 66.6479 89.319 66.4449C89.1823 66.2341 89.0949 65.9953 89.0632 65.7461C89.0187 65.4508 88.9978 65.1524 89.0008 64.8538H88.9509C88.6935 65.2333 88.4122 65.5959 88.1085 65.9395C87.8301 66.2524 87.5062 66.5216 87.1477 66.7381C86.7741 66.9592 86.3706 67.1252 85.9497 67.2311C85.4239 67.3517 84.8855 67.4082 84.3461 67.3995C83.7883 67.4038 83.2324 67.3346 82.6926 67.1936C82.2011 67.0672 81.7405 66.8422 81.3386 66.5322C80.9532 66.2213 80.6438 65.8265 80.4339 65.3779C80.2034 64.8578 80.0905 64.2932 80.1032 63.7244C80.0583 62.9874 80.2651 62.257 80.6897 61.6529C81.0993 61.1408 81.6377 60.7467 82.2496 60.5111C82.9492 60.2361 83.6809 60.0516 84.4272 59.962C85.2384 59.8559 86.062 59.7499 86.923 59.6563C87.2121 59.6301 87.4995 59.5884 87.7841 59.5315C88.0082 59.4927 88.2212 59.4054 88.408 59.2756C88.5762 59.1427 88.7073 58.9686 88.7887 58.7702C88.8852 58.5046 88.9297 58.2228 88.9197 57.9404C88.9382 57.4956 88.8505 57.0529 88.6639 56.6488C88.5034 56.3248 88.2574 56.0508 87.9526 55.8564C87.632 55.6514 87.2733 55.5135 86.8981 55.4508C86.474 55.3738 86.0437 55.3362 85.6127 55.3385C84.7573 55.3036 83.9138 55.549 83.2105 56.0373C82.8848 56.3106 82.6268 56.6556 82.4568 57.0454C82.2869 57.4351 82.2095 57.8589 82.2309 58.2836H80.6835C80.6992 57.6195 80.8433 56.9648 81.1078 56.3555ZM88.8323 60.0993C88.7688 60.1995 88.6858 60.2859 88.5883 60.3534C88.4908 60.4209 88.3807 60.4682 88.2645 60.4924C88.0226 60.5643 87.7768 60.6226 87.5283 60.6671C86.9043 60.7794 86.2055 60.8792 85.5067 60.9728C84.8718 61.0516 84.2453 61.1873 83.6348 61.3784C83.1141 61.5275 82.6326 61.7896 82.2247 62.1458C82.0368 62.3326 81.8907 62.5571 81.7961 62.8044C81.7014 63.0518 81.6604 63.3165 81.6756 63.5809C81.667 63.9418 81.7462 64.2994 81.9064 64.6229C82.0601 64.9239 82.2722 65.1912 82.5304 65.4091C82.7973 65.6318 83.1044 65.8012 83.4351 65.9083C83.7744 66.0249 84.1308 66.0839 84.4896 66.083C85.0639 66.0837 85.6347 65.9931 86.1805 65.8147C86.6976 65.6476 87.1767 65.3805 87.5907 65.0285C88.0113 64.6689 88.347 64.2205 88.5736 63.7155C88.8002 63.2106 88.912 62.6617 88.901 62.1084V60.0993H88.8323Z" fill="#1D1D1B"/>
<path d="M95.621 54.3963V56.5802H95.6709C95.9691 55.7988 96.5205 55.1398 97.237 54.7083C97.9844 54.2402 98.851 53.9976 99.7328 54.0095C100.486 53.9875 101.237 54.1039 101.948 54.3526C102.5 54.5489 102.994 54.8815 103.383 55.3198C103.749 55.7652 104.003 56.2914 104.125 56.8547C104.28 57.5214 104.353 58.2044 104.344 58.8888V67.0002H102.803V59.1509C102.806 58.6457 102.756 58.1417 102.653 57.6471C102.575 57.1988 102.401 56.7729 102.141 56.3992C101.883 56.0503 101.542 55.7715 101.149 55.5881C100.657 55.3786 100.124 55.2786 99.5893 55.2948C99.0208 55.2853 98.4569 55.3981 97.9358 55.6255C97.4583 55.8344 97.0324 56.1453 96.6879 56.5365C96.3396 56.9389 96.0726 57.4051 95.9017 57.9092C95.7082 58.4631 95.605 59.0446 95.596 59.6313V67.0127H94.0486V54.3963H95.621Z" fill="#1D1D1B"/>
<path d="M115.594 56.1372C114.929 55.5643 114.067 55.2733 113.191 55.326C112.517 55.311 111.85 55.4723 111.257 55.794C110.709 56.1031 110.236 56.5292 109.872 57.0419C109.498 57.5662 109.218 58.1508 109.042 58.7702C108.66 60.059 108.66 61.4311 109.042 62.7199C109.218 63.3393 109.498 63.9239 109.872 64.4482C110.236 64.9609 110.709 65.387 111.257 65.6961C111.85 66.0179 112.517 66.1792 113.191 66.1641C113.654 66.1644 114.112 66.0732 114.539 65.8958C114.96 65.7206 115.343 65.4665 115.669 65.1471C116.002 64.8156 116.277 64.4294 116.48 64.0052C116.696 63.5498 116.829 63.0597 116.873 62.5576H118.414C118.288 63.9164 117.689 65.188 116.723 66.1516C115.758 67.0238 114.491 67.485 113.191 67.437C112.31 67.455 111.435 67.2737 110.633 66.9066C109.913 66.5718 109.274 66.0842 108.761 65.4778C108.245 64.8516 107.855 64.1311 107.613 63.3563C107.091 61.6717 107.091 59.8684 107.613 58.1837C107.855 57.4089 108.245 56.6885 108.761 56.0623C109.279 55.4555 109.916 54.9626 110.633 54.6147C111.435 54.2455 112.309 54.0621 113.191 54.0781C114.428 54.04 115.642 54.4203 116.636 55.1576C117.126 55.5559 117.528 56.0515 117.817 56.6132C118.106 57.1749 118.275 57.7904 118.314 58.4208H116.792C116.639 57.5536 116.221 56.7554 115.594 56.1372Z" fill="#1D1D1B"/>
<path d="M122.301 62.8634C122.448 63.4421 122.702 63.9882 123.05 64.4732C123.397 64.9496 123.839 65.349 124.348 65.6462C124.918 65.9693 125.565 66.1311 126.22 66.1142C127.185 66.1724 128.135 65.8549 128.871 65.2282C129.535 64.5921 129.996 63.7735 130.194 62.8759H131.767C131.534 64.1513 130.902 65.3201 129.963 66.214C128.907 67.0619 127.571 67.4807 126.22 67.3871C125.334 67.4015 124.457 67.2137 123.655 66.838C122.953 66.511 122.342 66.016 121.877 65.3966C121.405 64.7566 121.06 64.0323 120.86 63.2627C120.636 62.4264 120.525 61.564 120.529 60.6983C120.53 59.8719 120.641 59.0492 120.86 58.2524C121.065 57.481 121.41 56.7536 121.877 56.106C122.344 55.4738 122.953 54.9607 123.655 54.6085C124.455 54.2046 125.343 54.0052 126.238 54.0282C127.096 53.9917 127.948 54.1769 128.713 54.566C129.479 54.9551 130.13 55.5349 130.606 56.2495C131.066 56.9424 131.394 57.7146 131.573 58.5269C131.766 59.3821 131.848 60.2588 131.816 61.135H122.083C122.081 61.7181 122.155 62.299 122.301 62.8634ZM129.945 58.1463C129.767 57.6248 129.499 57.1389 129.152 56.7112C128.808 56.2955 128.384 55.9538 127.904 55.7066C127.385 55.4485 126.812 55.318 126.232 55.326C125.646 55.3167 125.067 55.4472 124.541 55.7066C124.062 55.9538 123.637 56.2955 123.293 56.7112C122.941 57.1449 122.662 57.634 122.47 58.1588C122.27 58.7007 122.134 59.264 122.064 59.8372H130.257C130.242 59.2607 130.137 58.69 129.945 58.1463Z" fill="#1D1D1B"/>
<path d="M141.75 56.8547C141.578 56.5124 141.33 56.2137 141.026 55.9812C140.714 55.7498 140.36 55.5804 139.984 55.482C139.577 55.3724 139.157 55.3178 138.736 55.3198C138.386 55.3206 138.037 55.3582 137.694 55.4321C137.354 55.501 137.027 55.6254 136.727 55.8002C136.44 55.9657 136.196 56.1966 136.016 56.4741C135.829 56.7841 135.735 57.1417 135.747 57.5036C135.738 57.8126 135.828 58.1164 136.003 58.3709C136.167 58.6188 136.379 58.831 136.627 58.9949C136.897 59.1647 137.186 59.3009 137.488 59.4004C137.794 59.5065 138.081 59.5939 138.343 59.6625L140.402 60.1242C140.851 60.1944 141.29 60.3136 141.712 60.4799C142.129 60.6439 142.519 60.8712 142.867 61.1537C143.205 61.4405 143.485 61.7901 143.69 62.1833C143.911 62.6332 144.02 63.1298 144.009 63.6308C144.028 64.2485 143.865 64.8581 143.541 65.3842C143.237 65.86 142.829 66.261 142.349 66.5572C141.847 66.8591 141.296 67.0703 140.72 67.1811C140.132 67.3095 139.532 67.3744 138.93 67.3746C137.642 67.4351 136.37 67.064 135.317 66.3201C134.393 65.6213 133.867 64.494 133.738 62.9383H135.279C135.281 63.3927 135.384 63.8411 135.582 64.2504C135.779 64.6596 136.066 65.0194 136.421 65.303C137.168 65.852 138.078 66.1333 139.004 66.1017C139.397 66.0993 139.787 66.0575 140.171 65.9769C140.564 65.8997 140.941 65.7585 141.288 65.5589C141.619 65.3751 141.907 65.1218 142.13 64.8164C142.357 64.4887 142.473 64.0975 142.461 63.6995C142.474 63.37 142.394 63.0435 142.23 62.7573C142.07 62.5063 141.857 62.2933 141.606 62.1334C141.326 61.955 141.024 61.8125 140.708 61.7091C140.374 61.5933 140.035 61.4954 139.691 61.4158L137.707 60.9728C137.231 60.8529 136.764 60.7007 136.309 60.5173C135.908 60.366 135.531 60.1557 135.192 59.8934C134.875 59.6458 134.621 59.3274 134.45 58.9637C134.245 58.4836 134.152 57.9631 134.179 57.4419C134.206 56.9207 134.352 56.4125 134.606 55.9562C134.884 55.5058 135.267 55.1292 135.722 54.8581C136.196 54.5711 136.712 54.3605 137.251 54.2341C137.802 54.1089 138.365 54.0441 138.93 54.0407C139.531 54.035 140.13 54.1169 140.708 54.284C141.236 54.4398 141.728 54.6985 142.155 55.0452C142.573 55.3842 142.911 55.81 143.148 56.2931C143.428 56.8576 143.589 57.4734 143.622 58.1026H142.074C142.064 57.6672 141.953 57.24 141.75 56.8547Z" fill="#1D1D1B"/>
<path d="M154.99 10.6883L160.98 5.17258L167.051 10.6883V18.9994H154.99V10.6883Z" fill="#A8AD00"/>
<path d="M161.024 26.4182C158.411 26.4195 155.856 25.6458 153.683 24.1951C151.51 22.7444 149.816 20.6819 148.816 18.2683C147.815 15.8548 147.552 13.1987 148.061 10.636C148.57 8.07324 149.828 5.71902 151.675 3.87107C153.522 2.02312 155.876 0.764454 158.438 0.254272C161.001 -0.25591 163.657 0.00530992 166.071 1.00489C168.485 2.00448 170.548 3.69752 172 5.86988C173.452 8.04224 174.227 10.5963 174.227 13.2091C174.222 16.7098 172.829 20.0658 170.354 22.5417C167.88 25.0176 164.524 26.4116 161.024 26.4182ZM161.024 2.88267C158.981 2.88267 156.985 3.48831 155.287 4.62299C153.588 5.75768 152.265 7.37045 151.483 9.25736C150.702 11.1443 150.497 13.2206 150.896 15.2237C151.294 17.2268 152.278 19.0668 153.722 20.511C155.166 21.9552 157.006 22.9387 159.009 23.3371C161.012 23.7356 163.089 23.5311 164.975 22.7495C166.862 21.9679 168.475 20.6444 169.61 18.9462C170.745 17.248 171.35 15.2515 171.35 13.2091C171.347 10.4714 170.258 7.84673 168.322 5.91087C166.386 3.975 163.761 2.88598 161.024 2.88267Z" fill="#A8AD00"/>
<path d="M160.749 35.6403C160.739 35.2898 160.799 34.9409 160.926 34.614C161.053 34.287 161.243 33.9887 161.487 33.7365C161.73 33.4842 162.022 33.2832 162.344 33.1451C162.666 33.007 163.013 32.9346 163.364 32.9323C163.743 32.9253 164.119 32.9959 164.47 33.1396C164.821 33.2834 165.139 33.4974 165.404 33.7684L165.123 34.0554C164.898 33.8112 164.625 33.6163 164.321 33.4831C164.018 33.3499 163.689 33.2814 163.357 33.2817C163.056 33.2864 162.758 33.3517 162.483 33.4737C162.207 33.5958 161.959 33.7722 161.752 33.9923C161.546 34.2123 161.387 34.4717 161.283 34.7548C161.179 35.038 161.133 35.3391 161.149 35.6403C161.136 35.9413 161.184 36.2419 161.289 36.5243C161.394 36.8067 161.554 37.0653 161.761 37.2849C161.967 37.5046 162.215 37.6808 162.49 37.8034C162.765 37.926 163.062 37.9924 163.364 37.9988C163.705 37.9989 164.043 37.926 164.354 37.7851C164.665 37.6441 164.942 37.4383 165.167 37.1814L165.429 37.4372C165.167 37.7277 164.846 37.9592 164.488 38.1163C164.13 38.2733 163.742 38.3524 163.351 38.3482C163 38.3485 162.653 38.2779 162.33 38.1405C162.007 38.0032 161.716 37.802 161.473 37.549C161.23 37.2961 161.04 36.9966 160.916 36.6686C160.792 36.3405 160.735 35.9908 160.749 35.6403Z" fill="#1D1D1B"/>
<path d="M169.241 32.9947H169.616L172.055 38.2733H171.631L170.964 36.8071H167.875L167.207 38.2733H166.802L169.241 32.9947ZM170.801 36.4514L169.422 33.4252L168.037 36.4514H170.801Z" fill="#1D1D1B"/>
<path d="M173.915 33.0321H176.067C176.314 33.0166 176.561 33.0499 176.794 33.1302C177.028 33.2106 177.243 33.3363 177.428 33.5001C177.537 33.607 177.624 33.7352 177.682 33.8769C177.74 34.0186 177.768 34.1707 177.764 34.3237C177.769 34.5998 177.684 34.8699 177.524 35.0945C177.363 35.3191 177.135 35.4863 176.872 35.5716C177.496 35.7339 178.058 36.0957 178.058 36.8195C178.058 37.6931 177.309 38.2484 176.186 38.2484H173.908L173.915 33.0321ZM176.067 35.4531C176.854 35.4531 177.415 35.0662 177.415 34.3736C177.415 33.7996 176.941 33.4127 176.105 33.4127H174.339V35.4718L176.067 35.4531ZM176.236 37.9115C177.134 37.9115 177.702 37.4996 177.702 36.8445C177.702 36.2205 177.141 35.8275 176.111 35.8275H174.339V37.9302L176.236 37.9115Z" fill="#1D1D1B"/>
<path d="M180.123 33.0321H180.51V38.2733H180.123V33.0321Z" fill="#1D1D1B"/>
<path d="M182.875 33.0321H183.237L186.856 37.5932V33.0321H187.23V38.2733H186.937L183.243 33.6186V38.2733H182.875V33.0321Z" fill="#1D1D1B"/>
<path d="M189.532 33.0321H193.276V33.394H189.938V35.4531H192.914V35.8087H189.913V37.9115H193.288V38.2733H189.545L189.532 33.0321Z" fill="#1D1D1B"/>
<path d="M196.751 33.394H194.929V33.0321H198.966V33.394H197.144V38.2733H196.751V33.394Z" fill="#1D1D1B"/>
<path d="M160.98 40.5196H164.724V40.8815H161.386V42.9405H164.387V43.2962H161.386V45.3989H164.761V45.7608H161.018L160.98 40.5196Z" fill="#1D1D1B"/>
<path d="M166.746 40.5196H167.114L170.726 45.0807V40.5196H171.101V45.7608H170.808L167.12 41.1061V45.7608H166.746V40.5196Z" fill="#1D1D1B"/>
<path d="M178.395 40.4821H178.769L181.209 45.7608H180.778L180.117 44.2945H176.997L176.336 45.7608H175.93L178.395 40.4821ZM179.948 43.9389L178.563 40.9127L177.191 43.9389H179.948Z" fill="#1D1D1B"/>
<path d="M182.619 44.9996L182.868 44.7126C183.111 44.9624 183.402 45.16 183.724 45.2931C184.046 45.4261 184.392 45.4919 184.74 45.4863C185.527 45.4863 186.069 45.0495 186.069 44.4505C186.069 43.8952 185.776 43.577 184.584 43.3399C183.393 43.1028 182.819 42.6535 182.819 41.8611C182.836 41.6588 182.893 41.4619 182.988 41.2822C183.082 41.1025 183.212 40.9437 183.369 40.8151C183.526 40.6865 183.708 40.5907 183.902 40.5335C184.097 40.4763 184.302 40.4589 184.503 40.4821C185.159 40.4583 185.8 40.6809 186.3 41.1061L186.051 41.4118C185.625 41.0241 185.067 40.8142 184.491 40.8253C183.717 40.8253 183.205 41.2621 183.205 41.8112C183.205 42.3665 183.492 42.7034 184.734 42.9592C185.976 43.2151 186.456 43.6394 186.456 44.4006C186.456 45.2429 185.732 45.8294 184.722 45.8294C183.939 45.8415 183.183 45.5431 182.619 44.9996Z" fill="#1D1D1B"/>
<path d="M188.085 44.9996L188.334 44.7126C188.577 44.9624 188.868 45.16 189.19 45.2931C189.512 45.4261 189.858 45.4919 190.206 45.4863C190.992 45.4863 191.535 45.0495 191.535 44.4505C191.535 43.8952 191.242 43.577 190.05 43.3399C188.858 43.1028 188.284 42.6535 188.284 41.8611C188.301 41.6588 188.359 41.4619 188.453 41.2822C188.548 41.1025 188.678 40.9437 188.835 40.8151C188.992 40.6865 189.173 40.5907 189.368 40.5335C189.563 40.4763 189.767 40.4589 189.969 40.4821C190.625 40.4583 191.266 40.6809 191.766 41.1061L191.516 41.4118C191.091 41.0241 190.532 40.8142 189.957 40.8253C189.183 40.8253 188.671 41.2621 188.671 41.8112C188.671 42.3665 188.958 42.7034 190.2 42.9592C191.442 43.2151 191.922 43.6394 191.922 44.4006C191.922 45.2429 191.198 45.8294 190.187 45.8294C189.404 45.8415 188.648 45.5431 188.085 44.9996Z" fill="#1D1D1B"/>
<path d="M193.875 43.5832V40.5196H194.268V43.5458C194.268 44.7937 194.929 45.4925 196.04 45.4925C197.151 45.4925 197.781 44.8685 197.781 43.5832V40.5196H198.174V43.5395C198.174 45.0433 197.294 45.8419 196.028 45.8419C195.731 45.8589 195.435 45.8113 195.159 45.7023C194.882 45.5933 194.633 45.4255 194.429 45.2107C194.224 44.9958 194.068 44.7389 193.973 44.4579C193.877 44.1769 193.844 43.8784 193.875 43.5832Z" fill="#1D1D1B"/>
<path d="M200.402 40.5196H202.598C203.138 40.4929 203.666 40.6789 204.07 41.0375C204.327 41.2964 204.471 41.6464 204.47 42.0108C204.47 42.8906 203.846 43.3898 202.935 43.5083L204.663 45.7483H204.145L202.479 43.577H200.763V45.7483H200.402V40.5196ZM202.554 43.24C203.428 43.24 204.083 42.797 204.083 42.042C204.083 41.337 203.528 40.9002 202.579 40.9002H200.788V43.2587L202.554 43.24Z" fill="#1D1D1B"/>
<path d="M208.551 40.4821H208.925L211.365 45.7608H210.94L210.273 44.2945H207.184L206.516 45.7608H206.111L208.551 40.4821ZM210.11 43.9389L208.731 40.9127L207.346 43.9389H210.11Z" fill="#1D1D1B"/>
<path d="M213.224 40.5196H213.592L217.205 45.0807V40.5196H217.579V45.7608H217.286L213.598 41.1061V45.7608H213.224V40.5196Z" fill="#1D1D1B"/>
<path d="M219.657 43.1277C219.647 42.7767 219.707 42.4273 219.834 42.1C219.961 41.7726 220.152 41.474 220.397 41.2217C220.641 40.9694 220.933 40.7684 221.256 40.6307C221.579 40.493 221.926 40.4213 222.277 40.4197C222.656 40.4129 223.031 40.4835 223.381 40.6273C223.731 40.7711 224.047 40.985 224.311 41.2558L224.037 41.5429C223.807 41.2982 223.528 41.1042 223.219 40.9732C222.909 40.8421 222.576 40.7769 222.24 40.7816C221.942 40.7896 221.649 40.857 221.377 40.9798C221.105 41.1026 220.861 41.2785 220.658 41.497C220.455 41.7155 220.298 41.9723 220.196 42.2523C220.093 42.5323 220.048 42.8299 220.062 43.1277C220.049 43.429 220.096 43.7299 220.201 44.0127C220.306 44.2954 220.466 44.5544 220.672 44.7742C220.879 44.994 221.127 45.1703 221.403 45.2926C221.679 45.4149 221.976 45.4807 222.277 45.4863C222.623 45.4924 222.966 45.4237 223.283 45.2847C223.599 45.1458 223.882 44.9399 224.112 44.6813L224.374 44.9372C224.105 45.2336 223.775 45.4684 223.406 45.6257C223.038 45.7829 222.64 45.8588 222.24 45.8481C221.89 45.846 221.543 45.7731 221.222 45.6339C220.9 45.4947 220.61 45.2919 220.369 45.0379C220.128 44.7839 219.94 44.4837 219.818 44.1555C219.696 43.8272 219.641 43.4777 219.657 43.1277Z" fill="#1D1D1B"/>
<path d="M226.165 40.5196H229.908V40.8815H226.57V42.9405H229.571V43.2962H226.57V45.3989H229.946V45.7608H226.202L226.165 40.5196Z" fill="#1D1D1B"/>
<path d="M160.98 48.007H162.721C163.078 47.9831 163.436 48.0328 163.773 48.1531C164.11 48.2734 164.418 48.4617 164.679 48.7063C164.94 48.9509 165.148 49.2466 165.29 49.575C165.432 49.9034 165.505 50.2574 165.504 50.6152C165.505 50.9734 165.432 51.328 165.29 51.657C165.148 51.986 164.941 52.2824 164.68 52.528C164.419 52.7736 164.111 52.9631 163.774 53.0848C163.437 53.2066 163.079 53.2579 162.721 53.2358H160.98V48.007ZM162.721 52.8863C163.028 52.9089 163.337 52.8673 163.627 52.7642C163.917 52.6611 164.183 52.4988 164.407 52.2876C164.631 52.0763 164.809 51.8208 164.929 51.5372C165.049 51.2536 165.109 50.9481 165.105 50.6401C165.108 50.3319 165.047 50.0264 164.927 49.7426C164.807 49.4588 164.629 49.2029 164.405 48.9909C164.182 48.7789 163.917 48.6153 163.627 48.5104C163.337 48.4056 163.029 48.3616 162.721 48.3814H161.367V52.8988L162.721 52.8863Z" fill="#1D1D1B"/>
<path d="M167.582 48.007H171.325V48.3689H167.956V50.428H170.951V50.7836H167.956V52.8864H171.325V53.2482H167.582V48.007Z" fill="#1D1D1B"/>
<path d="M176.342 48.007H178.089C178.446 47.9831 178.804 48.0328 179.141 48.1531C179.478 48.2734 179.786 48.4617 180.047 48.7063C180.308 48.9509 180.516 49.2466 180.658 49.575C180.8 49.9034 180.873 50.2574 180.872 50.6152C180.873 50.9734 180.8 51.328 180.658 51.657C180.516 51.986 180.309 52.2824 180.048 52.528C179.787 52.7736 179.479 52.9631 179.142 53.0848C178.805 53.2066 178.447 53.2579 178.089 53.2358H176.342V48.007ZM178.089 52.8863C178.396 52.908 178.704 52.8657 178.993 52.7622C179.283 52.6587 179.547 52.4963 179.771 52.2851C179.994 52.074 180.172 51.8188 180.291 51.5356C180.411 51.2524 180.471 50.9475 180.466 50.6401C180.47 50.3322 180.411 50.0268 180.291 49.743C180.172 49.4592 179.995 49.2033 179.771 48.9912C179.548 48.7791 179.284 48.6154 178.994 48.5105C178.704 48.4055 178.396 48.3616 178.089 48.3814H176.735V52.8988L178.089 52.8863Z" fill="#1D1D1B"/>
<path d="M182.712 50.6152C182.695 50.2582 182.75 49.9014 182.875 49.5664C183 49.2315 183.191 48.9253 183.437 48.6665C183.684 48.4077 183.98 48.2017 184.309 48.0609C184.637 47.9201 184.991 47.8475 185.349 47.8475C185.706 47.8475 186.06 47.9201 186.388 48.0609C186.717 48.2017 187.013 48.4077 187.26 48.6665C187.506 48.9253 187.698 49.2315 187.822 49.5664C187.947 49.9014 188.002 50.2582 187.985 50.6152C188.002 50.9721 187.947 51.3289 187.822 51.6639C187.698 51.9989 187.506 52.305 187.26 52.5638C187.013 52.8226 186.717 53.0286 186.388 53.1694C186.06 53.3102 185.706 53.3828 185.349 53.3828C184.991 53.3828 184.637 53.3102 184.309 53.1694C183.98 53.0286 183.684 52.8226 183.437 52.5638C183.191 52.305 183 51.9989 182.875 51.6639C182.75 51.3289 182.695 50.9721 182.712 50.6152ZM187.579 50.6152C187.595 50.3123 187.549 50.0094 187.445 49.7248C187.34 49.4402 187.178 49.18 186.969 48.9599C186.761 48.7399 186.509 48.5646 186.231 48.4449C185.952 48.3251 185.652 48.2634 185.349 48.2634C185.045 48.2634 184.745 48.3251 184.467 48.4449C184.188 48.5646 183.937 48.7399 183.728 48.9599C183.519 49.18 183.357 49.4402 183.253 49.7248C183.148 50.0094 183.102 50.3123 183.118 50.6152C183.102 50.918 183.148 51.221 183.253 51.5055C183.357 51.7901 183.519 52.0503 183.728 52.2704C183.937 52.4904 184.188 52.6657 184.467 52.7854C184.745 52.9052 185.045 52.9669 185.349 52.9669C185.652 52.9669 185.952 52.9052 186.231 52.7854C186.509 52.6657 186.761 52.4904 186.969 52.2704C187.178 52.0503 187.34 51.7901 187.445 51.5055C187.549 51.221 187.595 50.918 187.579 50.6152Z" fill="#1D1D1B"/>
<path d="M190.056 48.007H190.418L192.521 51.1268L194.624 48.007H194.992V53.2482H194.605V48.6996L192.527 51.7133L190.418 48.6996V53.2482H190.044L190.056 48.007Z" fill="#1D1D1B"/>
<path d="M197.282 48.007H197.65L199.753 51.1268L201.855 48.007H202.273V53.2482H201.88V48.6996L199.778 51.7133L197.706 48.6996V53.2482H197.282V48.007Z" fill="#1D1D1B"/>
<path d="M206.548 47.9696H206.922L209.362 53.2482H208.931L208.27 51.782H205.15L204.489 53.2482H204.083L206.548 47.9696ZM208.101 51.4263L206.729 48.4001L205.343 51.4263H208.101Z" fill="#1D1D1B"/>
<path d="M210.69 50.6152C210.677 50.2664 210.734 49.9186 210.857 49.5922C210.981 49.2658 211.169 48.9675 211.41 48.715C211.65 48.4625 211.939 48.2609 212.26 48.1221C212.58 47.9834 212.925 47.9103 213.274 47.9072C213.977 47.8822 214.662 48.1279 215.189 48.5936L214.94 48.8868C214.483 48.4641 213.877 48.2398 213.255 48.2629C212.957 48.2707 212.663 48.3384 212.392 48.4617C212.121 48.5851 211.877 48.7617 211.675 48.9811C211.473 49.2004 211.317 49.4581 211.217 49.7388C211.116 50.0195 211.073 50.3175 211.09 50.6152C211.065 50.9219 211.105 51.2304 211.208 51.5205C211.31 51.8107 211.473 52.076 211.685 52.2991C211.897 52.5222 212.153 52.6982 212.438 52.8155C212.722 52.9328 213.028 52.9888 213.336 52.98C213.948 52.9679 214.538 52.7478 215.008 52.356V50.8897H213.255V50.5278H215.376V52.5494C214.81 53.0519 214.081 53.3313 213.324 53.3356C212.967 53.3477 212.612 53.285 212.281 53.1514C211.95 53.0178 211.651 52.8163 211.403 52.5599C211.155 52.3036 210.963 51.9981 210.841 51.6631C210.718 51.3281 210.667 50.9711 210.69 50.6152Z" fill="#1D1D1B"/>
<path d="M217.535 48.007H221.279V48.3689H217.941V50.428H220.942V50.7836H217.941V52.8864H221.317V53.2482H217.573L217.535 48.007Z" fill="#1D1D1B"/>
<path d="M222.97 52.487L223.22 52.2C223.462 52.4499 223.754 52.6475 224.075 52.7805C224.397 52.9136 224.743 52.9793 225.091 52.9737C225.878 52.9737 226.42 52.5369 226.42 51.9379C226.42 51.3826 226.127 51.0644 224.935 50.8273C223.744 50.5902 223.17 50.141 223.17 49.3485C223.187 49.1462 223.244 48.9494 223.339 48.7697C223.433 48.59 223.563 48.4311 223.72 48.3025C223.877 48.1739 224.059 48.0782 224.253 48.021C224.448 47.9638 224.653 47.9463 224.854 47.9696C225.51 47.9458 226.151 48.1684 226.651 48.5936L226.402 48.8993C225.974 48.5106 225.413 48.3007 224.836 48.3128C224.068 48.3128 223.556 48.7495 223.556 49.2986C223.556 49.8539 223.843 50.1909 225.085 50.4467C226.327 50.7025 226.807 51.1268 226.807 51.888C226.807 52.7304 226.084 53.3169 225.073 53.3169C224.29 53.3289 223.534 53.0306 222.97 52.487Z" fill="#1D1D1B"/>
<path d="M231.836 48.007H235.58V48.3689H232.223V50.428H235.224V50.7836H232.223V52.8864H235.599V53.2482H231.855L231.836 48.007Z" fill="#1D1D1B"/>
<path d="M239.087 48.3689H237.215V48.007H241.258V48.3689H239.43V53.2482H239.087V48.3689Z" fill="#1D1D1B"/>
<path d="M160.643 59.9745L160.899 59.6875C161.141 59.9382 161.432 60.1364 161.754 60.2695C162.076 60.4027 162.423 60.4679 162.771 60.4612C163.551 60.4612 164.094 60.0244 164.094 59.4254C164.094 58.8701 163.801 58.5519 162.609 58.3148C161.417 58.0776 160.843 57.6284 160.843 56.836C160.86 56.6337 160.918 56.4368 161.012 56.2571C161.107 56.0774 161.236 55.9186 161.393 55.79C161.551 55.6614 161.732 55.5656 161.927 55.5084C162.122 55.4512 162.326 55.4338 162.528 55.457C163.184 55.432 163.825 55.6547 164.325 56.081L164.075 56.3867C163.649 55.999 163.091 55.7891 162.515 55.8002C161.741 55.8002 161.236 56.237 161.236 56.7861C161.236 57.3414 161.517 57.6783 162.759 57.9341C164 58.19 164.481 58.6143 164.481 59.3755C164.481 60.2178 163.757 60.8043 162.746 60.8043C161.964 60.8137 161.209 60.5157 160.643 59.9745Z" fill="#1D1D1B"/>
<path d="M166.521 55.4945H170.264V55.8564H166.926V57.9154H169.928V58.2711H166.926V60.3738H170.302V60.7357H166.558L166.521 55.4945Z" fill="#1D1D1B"/>
<path d="M172.286 55.4945H174.483C175.024 55.4682 175.555 55.654 175.961 56.0124C176.214 56.2734 176.355 56.6225 176.355 56.9857C176.355 57.8655 175.731 58.3647 174.82 58.4832L176.548 60.7232H176.068L174.402 58.5519H172.686V60.7232H172.299L172.286 55.4945ZM174.439 58.2149C175.313 58.2149 175.968 57.7719 175.968 57.0169C175.968 56.3119 175.412 55.8751 174.464 55.8751H172.673V58.2336L174.439 58.2149Z" fill="#1D1D1B"/>
<path d="M177.846 55.4945H178.282L180.335 60.3177L182.388 55.4945H182.8L180.497 60.7731H180.154L177.846 55.4945Z" fill="#1D1D1B"/>
<path d="M184.715 55.4945H185.102V60.7357H184.715V55.4945Z" fill="#1D1D1B"/>
<path d="M187.23 58.1026C187.22 57.7516 187.28 57.4022 187.407 57.0749C187.534 56.7475 187.726 56.4489 187.97 56.1966C188.214 55.9443 188.506 55.7434 188.829 55.6056C189.152 55.4679 189.499 55.3962 189.851 55.3947C190.229 55.387 190.605 55.4573 190.955 55.6012C191.304 55.745 191.621 55.9593 191.885 56.2307L191.61 56.5178C191.384 56.2747 191.111 56.0807 190.808 55.9476C190.504 55.8145 190.176 55.7452 189.844 55.7441C189.544 55.7479 189.247 55.8123 188.972 55.9333C188.696 56.0543 188.448 56.2295 188.242 56.4484C188.036 56.6673 187.876 56.9255 187.772 57.2076C187.668 57.4896 187.621 57.7898 187.636 58.0901C187.622 58.3914 187.669 58.6923 187.774 58.9751C187.879 59.2579 188.039 59.5168 188.246 59.7366C188.452 59.9564 188.7 60.1327 188.976 60.255C189.252 60.3773 189.549 60.4431 189.851 60.4487C190.192 60.4488 190.53 60.3759 190.841 60.235C191.152 60.094 191.429 59.8882 191.654 59.6313L191.916 59.8871C191.652 60.1772 191.33 60.4082 190.971 60.5652C190.612 60.7222 190.224 60.8016 189.832 60.7981C189.482 60.7983 189.136 60.7281 188.814 60.5915C188.492 60.4549 188.201 60.2548 187.958 60.0032C187.715 59.7516 187.526 59.4536 187.4 59.1271C187.275 58.8005 187.217 58.4521 187.23 58.1026Z" fill="#1D1D1B"/>
<path d="M193.738 55.4945H197.482V55.8564H194.143V57.9154H197.145V58.2711H194.143V60.3738H197.519V60.7357H193.775L193.738 55.4945Z" fill="#1D1D1B"/>
<path d="M199.154 59.9745L199.403 59.6875C199.646 59.9371 199.937 60.1344 200.259 60.2675C200.581 60.4005 200.927 60.4664 201.275 60.4612C202.055 60.4612 202.598 60.0244 202.598 59.4254C202.598 58.8701 202.305 58.5519 201.113 58.3148C199.921 58.0777 199.347 57.6284 199.347 56.836C199.364 56.6337 199.422 56.4368 199.516 56.2571C199.611 56.0774 199.74 55.9186 199.897 55.79C200.055 55.6614 200.236 55.5656 200.431 55.5084C200.626 55.4512 200.83 55.4338 201.032 55.457C201.688 55.4332 202.329 55.6558 202.829 56.081L202.579 56.3867C202.153 55.999 201.595 55.7891 201.019 55.8002C200.245 55.8002 199.771 56.237 199.771 56.7861C199.771 57.3414 200.052 57.6783 201.294 57.9341C202.535 58.19 203.016 58.6143 203.016 59.3755C203.016 60.2178 202.292 60.8043 201.281 60.8043C200.889 60.8129 200.5 60.744 200.135 60.6016C199.77 60.4592 199.436 60.2461 199.154 59.9745Z" fill="#1D1D1B"/>
<path d="M208.039 55.4945H211.726V55.8564H208.426V58.0028H211.389V58.3647H208.426V60.7357H208.039V55.4945Z" fill="#1D1D1B"/>
<path d="M213.748 55.4945H214.129V60.7357H213.736L213.748 55.4945Z" fill="#1D1D1B"/>
<path d="M216.5 55.4945H216.861L220.48 60.0556V55.4945H220.855V60.7357H220.561L216.874 56.081V60.7357H216.5V55.4945Z" fill="#1D1D1B"/>
<path d="M225.154 55.457H225.528L227.968 60.7357H227.537L226.876 59.2694H223.756L223.095 60.7357H222.689L225.154 55.457ZM226.707 58.9138L225.36 55.8876L223.981 58.9138H226.707Z" fill="#1D1D1B"/>
<path d="M229.827 55.4945H230.189L233.808 60.0556V55.4945H234.183V60.7357H233.889L230.202 56.081V60.7357H229.827V55.4945Z" fill="#1D1D1B"/>
<path d="M236.254 58.1026C236.244 57.7516 236.304 57.4022 236.431 57.0749C236.558 56.7475 236.75 56.4489 236.994 56.1966C237.238 55.9443 237.53 55.7434 237.853 55.6056C238.176 55.4679 238.523 55.3962 238.875 55.3947C239.253 55.387 239.629 55.4573 239.979 55.6012C240.328 55.745 240.645 55.9593 240.909 56.2307L240.634 56.5178C240.409 56.2735 240.136 56.0787 239.832 55.9455C239.528 55.8123 239.2 55.7437 238.868 55.7441C238.568 55.7479 238.271 55.8123 237.996 55.9333C237.72 56.0543 237.472 56.2295 237.266 56.4484C237.06 56.6673 236.9 56.9255 236.796 57.2076C236.692 57.4896 236.645 57.7898 236.659 58.0901C236.647 58.3912 236.695 58.6917 236.8 58.9741C236.905 59.2565 237.065 59.5151 237.271 59.7348C237.478 59.9544 237.726 60.1307 238.001 60.2533C238.276 60.3759 238.573 60.4423 238.875 60.4487C239.216 60.4488 239.554 60.3759 239.865 60.235C240.176 60.094 240.453 59.8882 240.678 59.6313L240.94 59.8871C240.677 60.1767 240.356 60.4075 239.998 60.5645C239.64 60.7215 239.253 60.8011 238.862 60.7981C238.512 60.7983 238.166 60.728 237.843 60.5915C237.521 60.455 237.23 60.2551 236.986 60.0036C236.743 59.7521 236.553 59.4541 236.427 59.1276C236.301 58.801 236.242 58.4524 236.254 58.1026Z" fill="#1D1D1B"/>
<path d="M242.83 55.4945H243.217V60.7357H242.83V55.4945Z" fill="#1D1D1B"/>
<path d="M245.563 55.4945H249.307V55.8564H245.95V57.9154H248.952V58.2711H245.95V60.3738H249.326V60.7357H245.582L245.563 55.4945Z" fill="#1D1D1B"/>
<path d="M251.329 55.4945H253.531C254.071 55.4678 254.6 55.6538 255.004 56.0124C255.259 56.2719 255.4 56.622 255.397 56.9857C255.397 57.8655 254.773 58.3647 253.868 58.4832L255.597 60.7232H255.104L253.438 58.5643H251.722V60.7357H251.335L251.329 55.4945ZM253.482 58.2149C254.361 58.2149 255.01 57.7719 255.01 57.0169C255.01 56.3119 254.455 55.8751 253.506 55.8751H251.716V58.2336L253.482 58.2149Z" fill="#1D1D1B"/>
<path d="M257.181 59.9745L257.431 59.6875C257.674 59.937 257.965 60.1344 258.287 60.2675C258.609 60.4005 258.955 60.4664 259.303 60.4612C260.083 60.4612 260.626 60.0244 260.626 59.4254C260.626 58.8701 260.332 58.5519 259.141 58.3148C257.949 58.0777 257.375 57.6284 257.375 56.836C257.392 56.6337 257.449 56.4368 257.544 56.2571C257.639 56.0774 257.768 55.9186 257.925 55.79C258.082 55.6614 258.264 55.5656 258.459 55.5084C258.653 55.4512 258.858 55.4338 259.06 55.457C259.715 55.4332 260.357 55.6558 260.857 56.081L260.607 56.3867C260.181 55.999 259.623 55.7891 259.047 55.8002C258.273 55.8002 257.768 56.237 257.768 56.7861C257.768 57.3414 258.049 57.6783 259.29 57.9341C260.532 58.19 261.013 58.6143 261.013 59.3755C261.013 60.2178 260.289 60.8043 259.278 60.8043C258.497 60.8134 257.744 60.5153 257.181 59.9745Z" fill="#1D1D1B"/>
</g>
<defs>
<clipPath id="clip0">
<rect width="261" height="67.387" fill="white"/>
</clipPath>
</defs>
</svg>
