<svg width="174" height="174" viewBox="0 0 174 174" fill="none" xmlns="http://www.w3.org/2000/svg">
<path d="M47.3025 70.3972L86.7545 34.0685L126.741 70.3972V125.137H47.3025V70.3972Z" fill="#C4CE20"/>
<path d="M87.0412 174C69.8325 174.008 53.0078 168.913 38.6953 159.358C24.3829 149.803 13.2254 136.218 6.63432 120.322C0.0431985 104.425 -1.68556 86.9314 1.66671 70.0524C5.01898 53.1733 13.3017 37.6676 25.4672 25.4963C37.6328 13.325 53.1345 5.03497 70.012 1.67473C86.8895 -1.68552 104.384 0.0349732 120.284 6.61859C136.184 13.2022 149.773 24.3532 159.335 38.6611C168.896 52.9691 174 69.7913 174 87C173.967 110.057 164.797 132.16 148.497 148.468C132.197 164.775 110.098 173.957 87.0412 174ZM87.0412 18.9863C73.5894 18.9863 60.4395 22.9753 49.2548 30.4487C38.07 37.9221 29.3525 48.5444 24.2047 60.9723C19.0569 73.4002 17.71 87.0755 20.3343 100.269C22.9586 113.462 29.4363 125.581 38.9482 135.093C48.4601 144.605 60.579 151.083 73.7723 153.707C86.9657 156.331 100.641 154.984 113.069 149.836C125.497 144.689 136.119 135.971 143.592 124.786C151.066 113.602 155.055 100.452 155.055 87C155.033 68.9683 147.86 51.6814 135.11 38.9311C122.36 26.1808 105.073 19.0081 87.0412 18.9863Z" fill="#C4CE20"/>
</svg>
